<?xml version="1.0" encoding="UTF-8"?>
<svg id="Layer_2" data-name="Layer 2" xmlns="http://www.w3.org/2000/svg" viewBox="0 0 1665.91 2264.92">
  <defs>
    <style>
      .cls-1 {
        fill: #fff;
      }
    </style>
  </defs>
  <g id="_레이어_1" data-name="레이어 1">
    <g>
      <path class="cls-1" d="m1235.88,375.86c103.75.05,188.01-84.19,187.94-187.98C1423.88,83.91,1339.63-.23,1235.88,0c-103.94-.23-188.19,83.91-187.92,187.87-.25,103.8,84,188.03,187.92,187.98h0Z"/>
      <path class="cls-1" d="m993.81,721.84l1.13,1435.98c.36,143.32,211.61,142.03,211.11-3.33l1.11-835.65h40.9v834.59c-.45,146.06,213.26,149.73,213.4,4.42V715.18h37.57v515.17c-.48,123.82,167.26,123.82,166.88,2.22v-562.69c.38-151.88-112.32-241.05-231.02-240.98h-334.95c-79.36-.05-136.93,31.35-185.72,100.61l-169.16,246.51h-292.92c-118.45-.02-111.86,167.35-2.2,166.94h338.26c26.32.41,58.55-9.44,77.39-37.62l128.21-183.5h0Z"/>
      <polygon class="cls-1" points="442.2 1601.75 442.2 1464.72 305.1 1464.72 305.1 1601.75 442.2 1601.75"/>
      <polygon class="cls-1" points="517.34 1296.62 416.76 1197.17 316.15 1296.62 416.76 1397.25 517.34 1296.62"/>
      <polygon class="cls-1" points="423.42 1107.62 322.79 1008.17 223.29 1107.62 322.79 1208.22 423.42 1107.62"/>
      <polygon class="cls-1" points="631.22 2263.93 810.31 1314.33 675.48 1314.33 519.56 2131.27 287.41 2131.27 133.79 1314.33 0 1314.33 174.69 2263.93 631.22 2263.93"/>
    </g>
  </g>
</svg>